<?xml version="1.0" encoding="utf-8"?>
<!-- Generator: Adobe Illustrator 25.4.1, SVG Export Plug-In . SVG Version: 6.00 Build 0)  -->
<svg version="1.1" id="Layer_1" xmlns="http://www.w3.org/2000/svg" xmlns:xlink="http://www.w3.org/1999/xlink" x="0px" y="0px"
	 viewBox="0 0 277.9 38" style="enable-background:new 0 0 277.9 38;" xml:space="preserve">
<style type="text/css">
	.st0{fill:#E3008C;}
	.st1{enable-background:new    ;}
	.st2{fill:#FFFFFF;}
</style>
<path class="st0" d="M46.4,12.7c-0.4-0.7-1-1.3-1.7-1.7c-0.5-0.2-0.9-0.5-1.3-0.8C43.2,10.1,43,9.9,43,9.7c-0.3-1.3-0.8-2.4-1.5-3.5
	c-0.5-0.7-1.2-1.4-2.2-1.5c-0.7,0-1.2-0.3-1.8-0.6c-0.8-0.5-1.7-0.5-2.6-0.2c-0.5,0.2-0.6,0.2-0.7-0.4c-0.2-0.9-0.8-1.4-1.4-2
	c-0.4-0.4-0.7-0.7-1.1-1.1c-0.1-0.1-0.2-0.2-0.4-0.3c-0.4-0.2-0.8-0.2-1.2,0c-0.8,0.3-1.6,0.4-2.5,0.2c-0.3-0.1-0.6-0.1-0.8-0.1
	c-1.8,0-3.6,0-5.4,0.1c-0.5,0-1.1,0.2-1.6,0.3c-0.3,0.1-0.7,0.2-1,0.2c-0.9,0-1.7,0.1-2.5,0.3c-1,0.3-2,0.6-2.8,1.2
	c-0.3,0.2-0.6,0.4-0.9,0.5c-0.8,0.3-1.5,0.6-2.1,1.3C10,4.6,9.6,4.7,9.1,4.5C8.6,4.4,8.2,4.4,7.7,4.6C7.3,4.8,7,5.1,6.6,5.3
	C6.4,5.5,6.2,5.7,6,5.7C5.3,5.6,4.7,5.8,4,6C3.2,6.2,2.4,7.1,2.3,8c-0.1,1-0.1,1.9,0.3,2.8c0.2,0.3,0.1,0.7,0,1
	c-0.3,0.9-0.3,1.9,0,2.9c0.1,0.4,0.2,0.8,0.2,1.2c0,0.2,0,0.4,0,0.6c0,0.9,0.3,1.7,0.4,2.5c0.3,1.2,0.5,2.5,1.1,3.6
	c0.1,0.2,0.2,0.4,0.2,0.6c0.3,0.9,0.5,1.7,0.9,2.6c0.3,0.8,0.9,1.5,1.6,2.1c0.2,0.2,0.4,0.3,0.7,0.5C8,28.6,8,28.8,7.9,29.1
	c-0.4,1.3-0.4,2.6,0,3.9c0.2,0.5,0.5,0.9,0.7,1.3c0.2,0.3,0.4,0.6,0.5,1c0.3,1.3,1.2,2,2.3,2.4c1.4,0.5,2.9,0.4,4.4,0
	c0.5-0.2,1-0.3,1.6-0.5c0.3-0.1,0.6-0.2,0.9-0.3c0.1,0,0.2-0.1,0.3-0.1c0.9-0.2,1.6-0.2,3.1,0.2c0.7,0.1,1.4,0.1,2.1,0.2
	c0.5,0,1,0.1,1.4-0.2s0.8-0.3,1.2-0.3c0.6,0,1.2-0.1,1.7-0.3c0.5-0.3,0.8-0.8,0.7-1.3c0-0.2,0-0.5,0-0.7c0-0.3-0.1-0.6-0.1-0.9
	c-0.1-0.4-0.3-0.8-0.3-1.3c-0.1-0.6,0-1.3-0.3-1.9c0,0,0,0,0-0.1c0.1,0,0.1,0.1,0.2,0.1c0.6,0.7,1.5,1,2.3,1.2
	c0.4,0.1,0.8,0.2,1.2,0.3c1.4,0.6,2.8,0.8,4.3,0.7c1.1,0,2.2-0.1,3.2-0.8c0.6-0.4,1.1-0.9,1.6-1.4c0.4-0.4,0.8-0.8,1.1-1.3
	c0.4-0.6,0.7-1.2,0.8-1.9c0.3-1.3,0.7-2.5,1.3-3.7c0.4-0.7,0.7-1.4,1.1-2c0.6-0.8,1.3-1.6,1.7-2.6c0.2-0.6,0.6-1.2,0.6-1.9
	C47.6,15.4,47.2,14,46.4,12.7z M36,9.7c-0.2-0.9-0.4-1.7-0.6-2.5C36,7.6,36.3,9.1,36,9.7z M34.6,6.7L34.6,6.7
	c0.2,0.4,0.3,0.7,0.3,1.1c0.1,0.9,0.1,1.8,0.2,2.7c0.1,0.6-0.2,1-0.7,1.5c-1.2,1.1-2.3,2.3-3.5,3.4c-0.7,0.7-1.5,1.3-2.3,2
	c-0.6,0.5-1.1,1.1-1.7,1.6c-0.1,0.1-0.2,0.1-0.2,0.2c-0.1,0-0.1-0.1-0.1-0.1c0.1-0.1,0.2-0.2,0.3-0.3c0.1-0.1,0.3-0.2,0.3-0.3
	c0-0.4-0.1-0.9-0.2-1.3c-0.1-0.3-0.4-0.5-0.7-0.5c-0.4,0-0.9,0-1.3,0.1c-0.3,0.2-0.6,0.5-0.8,0.8c-0.1,0.1-0.2,0.3-0.3,0.4
	c0.1-0.5,0.3-0.9,0.6-1.3c0.8-0.8,1.6-1.4,2.6-2c1.3-0.7,2.4-1.7,3.3-2.7c1.2-1.3,2.2-2.6,3.1-4.1C33.8,7.5,34.2,7.1,34.6,6.7z
	 M29.6,18.2c-0.2,0.1-0.4,0.2-0.7,0.3c1.6-1.6,3.6-2.7,5.1-4.5c-0.4,0.9-0.8,1.7-1.7,2.1c-0.2,0.1-0.3,0.2-0.4,0.3
	C31.2,17.1,30.4,17.7,29.6,18.2z M30.4,19.6c0.3-0.1,0.6-0.2,0.9-0.2c1.7-0.3,3.4-0.3,4.9,0.6c0.3,0.2,0.6,0.5,0.9,0.8
	c-2.2-0.9-4.4-1.2-6.7-1C30.4,19.8,30.4,19.6,30.4,19.6z M12.9,27.5c0.9-0.1,1.8-0.3,2.7-0.4c0.1,0,0.2,0,0.3,0c0,0,0,0.1,0.1,0.1
	c-1.3,0.7-2.6,1.2-4.1,1.2C12,28,12.4,27.6,12.9,27.5z M11.4,27c0,0,0-0.1-0.1-0.1c0.3-0.2,0.6-0.3,0.9-0.5c0,0,0,0,0.1,0.1
	C12,26.7,11.9,27.1,11.4,27z M13,26.9c0.1-0.1,0.2-0.2,0.4-0.3c0.4-0.3,0.7-0.6,1.1-0.9c0.4-0.2,0.9-0.4,1.3-0.5
	c0.9-0.2,1.9-0.2,2.8-0.4v0.1C16.9,26.1,15.1,26.8,13,26.9z M16.5,28.8c0.3-0.9,0.7-1.7,1.5-2.3c0.3-0.2,0.5-0.5,0.7-0.7
	c0.2-0.1,0.4-0.2,0.6-0.4c0,0,0,0.1,0.1,0.1c-0.1,0.1-0.1,0.2-0.2,0.2c-0.8,0.7-1.4,1.6-1.8,2.6c-0.3,0.9-0.1,1.7,0.4,2.4
	c0.3,0.4,0.7,0.6,1,0.9c0.1,0.1,0.2,0.1,0.3,0.2c-0.5,0.3-1.6,0.1-2.1-0.4C16.3,30.7,16.1,29.8,16.5,28.8z M18.8,29.9
	c-0.4-1.1-0.1-2.6,0.8-3.4c0.4-0.4,0.8-0.8,1.1-1.2l0,0c0-0.1,0.1-0.1,0.2-0.2H21l0,0c0,1.3,0.8,1.4,1.3,1.2l0,0
	c0.1-0.1,0.3-0.1,0.4-0.2c0,0,0,0,0.1,0c0.7-0.3,1-0.9,1.2-1.5c0-0.1,0.1-0.2,0.2-0.3c0.1,0.2,0.1,0.4,0.2,0.5
	c0.3,0.7,0.6,1.4,0.9,2.1c0.1,0.2,0,0.3-0.1,0.5c-0.6,0.5-1.2,1.1-1.8,1.5c-0.3,0.2-0.6,0.3-0.9,0.5l0,0c-1.4,0.9-1.2,0.8-2.1,1
	l-0.1,0.1c0,0-0.1,0-0.2,0C19.5,30.7,19,30.4,18.8,29.9z M23.1,17.3c0,0.1-0.1,0.1-0.1,0.2c-0.3-0.4-0.3-1.1,0-1.4
	c0.6-0.5,0.9-1.2,1.6-1.6c0.6-0.3,1.1-0.6,1.7-0.9c0.7-0.4,1.5-0.7,2.3-1c-0.2,0.2-0.5,0.5-0.8,0.7c-0.8,0.5-1.6,1-2.4,1.5
	C24.4,15.4,23.6,16.1,23.1,17.3z M22.2,25.6c0.1-1.1,0.8-1.9,1.2-2.8C23.6,24.5,23.3,25.2,22.2,25.6z M22.8,21
	c-1-0.2-1.7-0.6-2.3-1.2c-0.2-0.2-0.1-0.7,0.1-0.9c0.2-0.2,0.5-0.1,0.7,0c0.6,0.4,1.1,0.9,1.4,1.5C22.7,20.6,22.8,20.8,22.8,21z
	 M21.8,22c0.2,0,0.3,0,0.5,0c0,0.1,0,0.1,0.1,0.2c-0.5,0.3-0.9,0.6-1.4,0.9c-0.3,0.1-0.6,0.2-0.9,0.2c-0.3,0.1-0.5-0.1-0.7-0.4
	c0-0.1-0.1-0.2,0-0.2c0-0.3,0.7-0.8,1-0.6C20.9,22.2,21.4,22.1,21.8,22z M24.2,20.7c0.1-0.4,0.1-0.8,0.2-1.2
	c0.2-0.7,0.6-1.3,1.1-1.8c0.1-0.1,0.3-0.1,0.5-0.1c0,0.2,0.1,0.3,0.1,0.5c-0.2,1-0.8,1.8-1.4,2.5c-0.1,0.1-0.3,0.2-0.4,0.2
	C24.3,20.7,24.3,20.7,24.2,20.7z M24.9,22.4c-0.1-0.2,0-0.4,0.2-0.4s0.3,0,0.5,0c0.7-0.1,1.3,0.3,1.9,0.8c0.1,0.1,0.2,0.3,0.1,0.4
	c-0.1,0.2-0.2,0.4-0.4,0.4C26.5,23.8,25.3,23.2,24.9,22.4z M34.1,5.4c0,0,0,0.3-0.1,0.4c-1,0.9-1.7,2.1-2.4,3.3
	c-0.4,0.6-0.9,1.2-1.3,1.8c0,0.1-0.1,0.1-0.2,0.1c0.6-0.8,1-1.7,1.5-2.6c0.3-0.6,0.4-1.2,0.8-1.8c0.3-0.5,0.8-0.9,1.2-1.3
	C33.6,5.2,33.9,5.3,34.1,5.4z M33.4,3c-1-0.7-2.1-1.3-3.1-2C31,0.8,33,2,33.4,3z M16,2.6c1.2-0.3,2.3-0.6,3.5-0.9
	c0.4-0.1,0.7,0,1.1,0c0.8,0,1.7,0,2.5,0.1c0.1,0,0.2,0,0.3,0c-1.6,0.8-3.3,1.5-5.2,1.4c-1,0-2-0.1-3-0.1V3C15.5,2.8,15.7,2.7,16,2.6
	z M15.2,4.2c1,0,2,0,3,0c0.3,0,0.6-0.1,1-0.2c1.9-0.3,3.7-0.8,5.5-1.4c0.3-0.1,0.5-0.2,0.8-0.3c0.4-0.1,0.8-0.1,1.1,0
	c1,0.2,2,0.4,3,0.6c1.3,0.2,2.5,0.9,3.5,1.8c-0.4,0.4-0.7,0.7-1,1c-0.5,0.5-0.8,1.1-1.1,1.7c-0.2,0.5-0.4,0.9-0.7,1.3
	c-0.3,0.5-0.6,1-0.9,1.5s-0.8,0.9-1.4,1.2c-1,0.6-2,1.1-3,1.7c-1,0.7-2.1,1.4-2.7,2.7c-0.2-0.3-0.3-0.5-0.4-0.8
	c-0.6-1.2-1.1-2.4-1.7-3.5c-0.3-0.5-0.6-1-1-1.4c-0.8-0.9-1.4-1.8-1.9-2.9c-0.6-1.1-1.2-2.3-2.5-3c0,0,0,0-0.1-0.1
	C15,4.2,15.1,4.2,15.2,4.2z M20.8,14.5c-1.2-1.2-2.3-2.6-3.2-4.1C19,11.6,20.2,12.8,20.8,14.5z M14.8,5.9c0.7,0.6,1.3,1.4,1.7,2.3
	c0.3,0.6,0.6,1.1,0.9,1.7c0,0.1,0.1,0.1,0.1,0.2c0,0-0.1,0-0.1,0.1c-0.5-0.6-0.9-1.1-1.4-1.6c-0.3-0.3-0.6-0.6-0.9-0.9
	c-0.7-0.7-1.3-1.3-2-2c0,0,0,0,0-0.1C13.5,5.3,14.3,5.4,14.8,5.9z M11.6,6.6c0-0.1,0.1-0.1,0.1-0.2C11.9,6,11.9,6,12.3,6.2
	c1,0.7,2,1.5,2.6,2.6c0.6,1,1.4,1.9,2.2,2.8c1,1.1,1.9,2.2,2.8,3.4c0.4,0.5,0.8,0.9,1.2,1.4c0.3,0.5,0.6,1,0.8,1.5h-0.1
	c-0.3-0.1-0.5-0.3-0.8-0.4c-0.6-0.3-1-0.1-1.2,0.5c-0.1,0.2-0.1,0.4-0.2,0.5c-0.4,0.5-0.2,1,0.2,1.5c0.1,0.1,0.1,0.2,0.1,0.3
	c-0.1-0.1-0.2-0.1-0.3-0.2c-0.4-0.5-0.8-1.1-1.2-1.7c-0.4-0.6-0.9-1.3-1.3-1.9c-0.6-0.8-1.1-1.6-2-2.2c-0.9-0.6-1.7-1.3-2.8-1.5
	c0,0,0,0-0.1,0c-0.9-0.3-1-0.4-1.1-1.3c-0.1-0.5-0.2-0.9-0.2-1.4C10.6,8.8,10.9,7.6,11.6,6.6z M17.2,18.9L17.1,19
	c-1.8-1.3-3.2-3-4.7-4.6l0.1-0.1c0.1,0,0.2,0.1,0.3,0.1c0.9,0.6,1.8,1.3,2.3,2.2c0.3,0.5,0.9,0.8,1.3,1.2
	C16.7,18.2,17,18.6,17.2,18.9z M8.4,7.6C8.4,7.2,8.6,7,9,6.9c0.2,0,0.5-0.1,0.7-0.2v0.1C9.4,7.4,9.5,8,9.6,8.6
	c0.1,0.8,0.2,1.5,0.3,2.3c0,0.2,0.1,0.4,0.1,0.7c-0.4-0.2-0.7-0.6-1-0.9C8.3,9.8,8.3,8.7,8.4,7.6z M4.6,7.3C4.2,7.9,3.8,8.5,3.4,9
	C3.3,8.3,3.8,7.6,4.6,7.3z M4.7,20.7c-0.1-0.4-0.3-0.7-0.3-1.1c-0.2-1.7-0.4-3.4-0.6-5.1c0,0,0-0.1,0-0.2C4.2,15,5,19.8,4.7,20.7z
	 M8.9,26.7C8,26.3,7.1,25.8,6.6,25c-0.5-0.7-0.9-1.4-1.1-2.3c-0.1-0.4-0.1-0.8,0-1.2c0.1-1.2-0.1-2.5-0.2-3.7c0-0.3-0.1-0.7-0.2-1
	c-0.3-1.2-0.6-2.4-1.1-3.5c-0.3-0.7-0.2-1.4,0-2.1c0-0.2,0.1-0.5,0.1-0.7c0.2-1.1,1-2,1.7-2.9C6.1,7.1,6.5,7,7.1,7.1
	c0.2,0.1,0.5,0,0.8,0C7.8,7.6,7.7,8,7.7,8.4c-0.1,0.8-0.2,1.5-0.2,2.2c0,0.9,0.3,1.6,1.1,2.1c0.7,0.4,1.3,0.8,2,1.2
	c0.4,0.2,0.6,0.5,0.8,0.8s0.5,0.7,0.8,1c0.4,0.4,0.8,0.7,1.2,1c0.7,0.6,1.4,1.2,2,1.8c0.3,0.2,0.5,0.5,0.8,0.7
	c0.2,0.2,0.4,0.4,0.6,0.5c0.5,0.3,0.8,0.6,1.2,1.1c0.2,0.3,0.6,0.5,0.9,0.7c-0.1,0.1-0.1,0.1-0.2,0.2c-0.4,0.4-0.5,0.8-0.4,1.3
	c0,0.1,0,0.1,0,0.2c0.1,0.4,0,0.4-0.4,0.5c-0.9,0.2-1.8,0.3-2.7,0.6c-1,0.2-2,0.4-3,0.7c-1,0.3-1.8,0.8-2.5,1.5
	C9.5,26.8,9.2,26.8,8.9,26.7z M9.4,30.8H9.3c0-0.4,0.1-0.9,0.1-1.3c0-0.1,0.2-0.1,0.2-0.2c0,0.1,0.1,0.2,0.1,0.3
	C9.7,30,9.5,30.4,9.4,30.8z M10.5,28.3c-0.2,0-0.4-0.1-0.6-0.1c0,0,0-0.1,0-0.2c0.2,0,0.4,0.1,0.6,0.1
	C10.5,28.2,10.5,28.2,10.5,28.3z M11.1,35.6c0.6,0.3,1.3,0.7,2,0.9s1.5,0.2,2.3,0.3C14,37.4,11.4,36.6,11.1,35.6z M25.4,35.3
	c-0.5,0.3-0.9,0.3-1.4,0.1c-0.9-0.3-1.9-0.4-2.9-0.3c0,0,0,0-0.1,0c-0.2,0-0.8,0.1-2.3,0.5h-0.1c-0.4,0.1-0.8,0.2-1.2,0.3
	c-0.4,0.1-0.7,0-1.1,0c-1.3-0.1-2.6-0.2-3.8-0.6c-0.7-0.2-1.3-0.6-1.8-1.1c-0.1-0.1-0.1-0.3-0.1-0.4c0.1-1.3,0.1-2.6,0.5-3.9
	c0.1-0.2,0.2-0.3,0.4-0.3c0.9-0.1,1.9-0.3,2.8-0.5c0.4-0.1,0.7-0.3,1.2-0.5c-0.5,1.4-0.4,2.6,0.7,3.6c1.1,0.9,2.2,0.7,3.4,0.3
	c0.1,0,0.2-0.1,0.3-0.1c0.9-0.4,1.4-0.6,1.9-0.8l0,0c0.7-0.3,1.3-0.7,1.8-1.2c0.5-0.6,1.1-0.9,1.9-1c0.3,0,0.4,0,0.5,0.3
	c0.3,0.8,0.2,1.6,0.3,2.4c0,0.5,0.1,1.1,0.1,1.6C26.5,34.4,26.1,34.9,25.4,35.3z M25.7,24.7c0-0.1-0.1-0.1-0.1-0.2
	c0.1,0,0.2,0,0.3,0c0.6,0,1.1,0,1.7-0.1c0.7-0.1,1.1-0.8,1.2-1.5s-0.3-1-0.8-1.2c-0.3-0.1-0.6-0.2-0.9-0.3v-0.1
	c0.6-0.1,1.2-0.2,1.9-0.2c1.2-0.1,2.4-0.1,3.7-0.1c1.1,0,2.2,0.4,3.2,1c0.5,0.3,0.9,0.8,1,1.4c0,0.2,0,0.4-0.2,0.5
	c-0.4,0.1-0.8,0.2-1.2,0.4c-0.6,0.2-1.1,0.4-1.7,0.6c-0.2,0.1-0.5,0.2-0.8,0.2c-2,0.1-3.9,0.5-5.7,1.4c-0.1,0.1-0.3,0.2-0.4,0
	C26.4,25.7,26,25.2,25.7,24.7z M36.2,24.3c-0.3,0.3-0.8,0.2-1.2,0.3v-0.1c0.4-0.1,0.8-0.2,1.2-0.3C36.2,24.2,36.2,24.3,36.2,24.3z
	 M27.8,35c0,0.6-0.3,0.8-1.1,0.8c0.1-0.1,0.1-0.2,0.2-0.3c0.3-0.3,0.4-0.6,0.4-1.1c0-0.6,0-1.3,0-1.9h0.1c0.1,0.4,0.3,0.7,0.4,1.1
	C27.8,34,27.8,34.5,27.8,35z M28.3,27.9c-0.3-0.2-0.5-0.4-0.7-0.6c0.5-0.8,3-1.6,3.8-1.3c-0.8,0.5-1.5,1.1-2.2,1.6
	c-0.2,0.1-0.4,0.3-0.6,0.4C28.5,28,28.4,28,28.3,27.9z M42.6,24.2c-0.4,0.9-0.5,1.8-0.7,2.7c-0.2,0.9-0.6,1.8-1,2.6
	c-0.1,0.2-0.4,0.4-0.7,0.6c-0.4,0.3-0.7,0.5-1.1,0.8c0-0.1,0-0.1,0-0.1c1-1.2,1.5-2.5,1.9-4c0.2-0.7,0.3-1.5,0.6-2.2
	c0.1-0.4,0.4-0.7,0.7-1.1c0.4-0.5,0.8-1.1,1.2-1.6c0.1-0.1,0.1-0.2,0.2-0.3l0,0C43.4,22.5,43,23.3,42.6,24.2z M42.3,22
	c-0.6,0.8-1.2,1.6-1.6,2.6c-0.5,1.3-0.9,2.5-1.4,3.8c-0.3,0.8-0.7,1.5-1.2,2.1c-0.1,0.2-0.3,0.3-0.5,0.4c-0.5,0.2-1,0.5-1.5,0.7
	c-0.4,0.1-0.9,0.1-1.4,0.1c-1.5-0.2-2.7-0.9-4-1.6c-0.6-0.4-1.1-0.8-1.7-1.2v-0.1c0.1,0,0.2-0.1,0.3-0.1c1.2-0.1,2-0.8,2.6-1.8
	c0.1-0.1,0.1-0.2,0.2-0.3c0.2-0.5,0.6-0.6,1.1-0.6c0.6,0.1,1.1,0.1,1.6-0.2c0.1,0,0.2,0,0.2,0c0.9,0,1.6-0.4,2.2-1.1
	c0.3-0.3,0.6-0.5,0.9-0.8c0.7-0.6,0.9-1.6,0.6-2.5c-0.5-1.3-1.4-2-2.7-2.5c-0.9-0.3-1.8-0.4-2.7-0.4c-0.5,0-1,0.2-1.4,0.3
	c-0.4,0.1-0.9,0.2-1.3,0.3V19c0.4-0.4,0.9-0.7,1.3-1.1c0.6-0.5,1.2-1,1.8-1.5s0.8-1.3,1.1-2c0-0.1,0.1-0.1,0.1-0.2
	c0.1-1.2,1.1-1.9,1.8-2.7c0.3-0.3,0.4-0.6,0.4-1c0-0.8,0-1.6,0-2.4c0-0.1,0-0.3-0.1-0.4c-0.3-0.6-0.6-1.2-0.9-1.9
	c0.1,0,0.2-0.1,0.4-0.1c0.3,0,0.7,0,1.1,0c0.2,0,0.4,0.1,0.5,0.2c0.8,0.7,1.4,1.5,1.8,2.4c0.4,1,1.2,1.8,2,2.5
	c0.2,0.2,0.3,0.4,0.4,0.6c0.2,0.8,0.3,1.5,0.7,2.2c0.2,0.3,0.3,0.6,0.4,0.9c0.2,0.5,0.5,1.1,0.8,1.6s0.3,1.1,0.3,1.7
	C44.1,19.5,43.2,20.7,42.3,22z M44.5,20.6L44.5,20.6c-0.1-0.1-0.1-0.2,0-0.3c0.2-0.6,0.5-1.3,0.7-1.9c0.3-0.8,0.3-1.6,0-2.3
	c-0.4-1.2-0.9-2.4-1.4-3.6c0-0.1-0.1-0.2-0.1-0.4c0.1,0,0.1,0,0.1-0.1c1.3,0.8,1.9,2.1,2.2,3.5C46.5,17.6,45.7,19.2,44.5,20.6z"/>
<g class="st1">
	<path class="st2" d="M62.9,9.5c-2.8,0-4.2,2.7-4.2,8v2.1c0,2.5,0.4,4.5,1.1,6c0.7,1.4,1.8,2.2,3.3,2.2c2,0,3.8-1.9,5.4-5.8H69
		l-0.2,6h-0.3c-0.1-0.2-0.2-0.3-0.3-0.4c-0.1-0.1-0.2-0.1-0.4-0.1c-0.2,0-0.8,0.1-1.9,0.4c-1.1,0.3-2.3,0.4-3.4,0.4
		c-2.9,0-5.2-0.8-6.8-2.4c-1.6-1.6-2.4-3.9-2.4-7.1s0.8-5.6,2.5-7.3C57.4,9.9,59.7,9,62.5,9c1.1,0,2.2,0.1,3.2,0.4
		c1,0.3,1.7,0.4,1.8,0.4c0.2,0,0.3,0,0.4-0.1c0.1-0.1,0.2-0.2,0.3-0.4h0.3l0.2,5.8h-0.5c-0.8-1.8-1.6-3.2-2.5-4.2
		C64.9,10,64,9.5,62.9,9.5z"/>
	<path class="st2" d="M77.4,21.8h0.8v-2.1c0-1.7-0.1-2.8-0.3-3.4c-0.2-0.6-0.6-0.9-1.1-0.9c-0.3,0-0.6,0.1-0.9,0.3
		c-0.3,0.2-0.4,0.4-0.4,0.7s0.1,0.6,0.2,0.9h0.7c0.1,0.4,0.2,0.8,0.2,1.4s-0.2,1-0.7,1.4c-0.4,0.4-1,0.6-1.7,0.6
		c-1.5,0-2.3-0.7-2.3-2.2c0-2.2,1.9-3.3,5.6-3.3c2.1,0,3.6,0.4,4.4,1.1c0.8,0.7,1.2,2.1,1.2,4v5.5c0,0.9,0.3,1.4,0.8,1.4
		c0.6,0,1-0.9,1.1-2.8l0.4,0c-0.1,1.6-0.4,2.7-0.9,3.3c-0.5,0.6-1.4,0.9-2.6,0.9c-2.2,0-3.4-0.7-3.7-2c-0.2,0.7-0.6,1.2-1,1.5
		c-0.5,0.3-1.1,0.5-2,0.5c-2.7,0-4-1.1-4-3.3c0-1.3,0.5-2.1,1.5-2.6S75.3,21.8,77.4,21.8z M76.5,26.9c0.1,0.3,0.3,0.4,0.6,0.4
		c0.3,0,0.5-0.2,0.8-0.7c0.2-0.5,0.4-1.1,0.4-1.9v-2.5H78c-1.1,0-1.7,0.8-1.7,2.4v0.4C76.3,26,76.4,26.6,76.5,26.9z"/>
	<path class="st2" d="M86.6,24.3v-8.5h-1.5v-0.5h1.5v-3.5l5-1.2v4.7h3.5v0.5h-3.5v9.1c0,0.8,0.1,1.5,0.3,1.9
		c0.2,0.4,0.5,0.6,1.1,0.6c0.5,0,1-0.3,1.4-0.8c0.4-0.5,0.7-1.3,0.8-2.2l0.5,0.1c-0.1,1.2-0.5,2.2-1.2,2.9c-0.6,0.7-1.7,1.1-3.2,1.1
		c-1.5,0-2.6-0.3-3.4-0.9C87,26.9,86.6,25.8,86.6,24.3z"/>
	<path class="st2" d="M102.3,21.8h0.8v-2.1c0-1.7-0.1-2.8-0.3-3.4c-0.2-0.6-0.6-0.9-1.1-0.9c-0.3,0-0.6,0.1-0.9,0.3
		c-0.3,0.2-0.4,0.4-0.4,0.7s0.1,0.6,0.2,0.9h0.7c0.1,0.4,0.2,0.8,0.2,1.4s-0.2,1-0.7,1.4s-1,0.6-1.7,0.6c-1.5,0-2.3-0.7-2.3-2.2
		c0-2.2,1.9-3.3,5.6-3.3c2.1,0,3.6,0.4,4.4,1.1c0.8,0.7,1.2,2.1,1.2,4v5.5c0,0.9,0.3,1.4,0.8,1.4c0.6,0,1-0.9,1.1-2.8l0.4,0
		c-0.1,1.6-0.4,2.7-0.9,3.3c-0.5,0.6-1.4,0.9-2.6,0.9c-2.2,0-3.4-0.7-3.7-2c-0.2,0.7-0.6,1.2-1,1.5c-0.5,0.3-1.1,0.5-2,0.5
		c-2.7,0-4-1.1-4-3.3c0-1.3,0.5-2.1,1.5-2.6C98.7,22,100.2,21.8,102.3,21.8z M101.4,26.9c0.1,0.3,0.3,0.4,0.6,0.4
		c0.3,0,0.5-0.2,0.8-0.7s0.4-1.1,0.4-1.9v-2.5h-0.2c-1.1,0-1.7,0.8-1.7,2.4v0.4C101.3,26,101.3,26.6,101.4,26.9z"/>
	<path class="st2" d="M110.5,8h6.6v19.7h1.5v0.5h-8v-0.5h1.5V8.4h-1.6V8z"/>
	<path class="st2" d="M119,15.3h6.6v12.3h1.5v0.5h-8v-0.5h1.5V15.8H119V15.3z M123.1,13.5c-1,0-1.6-0.2-2-0.7
		c-0.4-0.5-0.6-1.1-0.6-1.8c0-0.7,0.2-1.3,0.7-1.8c0.4-0.5,1.1-0.7,2-0.7s1.6,0.2,2,0.6c0.5,0.4,0.7,1,0.7,1.8s-0.2,1.4-0.7,1.9
		C124.7,13.2,124,13.5,123.1,13.5z"/>
	<path class="st2" d="M127.7,15.3h6.5v2.5c0.3-0.8,0.7-1.5,1.3-2c0.6-0.5,1.5-0.8,2.7-0.8c2.8,0,4.2,1.5,4.2,4.5v8.1h1.5v0.5h-7.6
		v-0.5h1.1v-8.7c0-1.1-0.1-1.8-0.2-2.1s-0.4-0.5-0.8-0.5c-0.6,0-1.1,0.4-1.5,1.1s-0.7,1.7-0.7,2.7v7.4h1.2v0.5h-7.6v-0.5h1.5V15.8
		h-1.5V15.3z"/>
	<path class="st2" d="M150.7,21.8h0.8v-2.1c0-1.7-0.1-2.8-0.3-3.4c-0.2-0.6-0.6-0.9-1.1-0.9c-0.3,0-0.6,0.1-0.9,0.3
		c-0.3,0.2-0.4,0.4-0.4,0.7s0.1,0.6,0.2,0.9h0.7c0.1,0.4,0.2,0.8,0.2,1.4s-0.2,1-0.7,1.4c-0.4,0.4-1,0.6-1.7,0.6
		c-1.5,0-2.3-0.7-2.3-2.2c0-2.2,1.9-3.3,5.6-3.3c2.1,0,3.6,0.4,4.4,1.1c0.8,0.7,1.2,2.1,1.2,4v5.5c0,0.9,0.3,1.4,0.8,1.4
		c0.6,0,1-0.9,1.1-2.8l0.4,0c-0.1,1.6-0.4,2.7-0.9,3.3c-0.5,0.6-1.4,0.9-2.6,0.9c-2.2,0-3.4-0.7-3.7-2c-0.2,0.7-0.6,1.2-1,1.5
		c-0.5,0.3-1.1,0.5-2,0.5c-2.7,0-4-1.1-4-3.3c0-1.3,0.5-2.1,1.5-2.6S148.6,21.8,150.7,21.8z M149.7,26.9c0.1,0.3,0.3,0.4,0.6,0.4
		c0.3,0,0.5-0.2,0.8-0.7c0.2-0.5,0.4-1.1,0.4-1.9v-2.5h-0.2c-1.1,0-1.7,0.8-1.7,2.4v0.4C149.6,26,149.6,26.6,149.7,26.9z"/>
</g>
<g class="st1">
	<path class="st2" d="M175.8,28.1v-0.3c0.1,0,0.2,0,0.4-0.1s0.4-0.1,0.6-0.2c0.2-0.1,0.4-0.2,0.6-0.4c0.2-0.2,0.3-0.4,0.3-0.6
		c0-0.2,0-0.4-0.1-0.8c-0.1-0.4-0.2-0.8-0.4-1.3c-0.2-0.5-0.4-1.1-0.6-1.8c-0.2-0.6-0.5-1.3-0.8-2h-7.2c-0.3,0.7-0.5,1.3-0.8,1.9
		c-0.3,0.6-0.5,1.2-0.8,1.9c-0.4,1-0.6,1.6-0.6,2c0,0.2,0.1,0.4,0.2,0.6s0.3,0.3,0.6,0.4c0.2,0.1,0.5,0.2,0.7,0.2
		c0.3,0,0.5,0.1,0.7,0.1v0.3H163v-0.3c0.5-0.1,0.9-0.2,1.2-0.4c0.3-0.2,0.5-0.3,0.6-0.4c0.1-0.1,0.3-0.4,0.6-0.9
		c0.3-0.5,0.6-1.2,1-2.1c0.4-0.8,0.8-1.8,1.3-2.9c0.5-1.1,0.9-2.2,1.4-3.3c0.5-1.1,1-2.3,1.5-3.4c0.5-1.2,0.9-2.2,1.4-3.2l-0.3-0.6
		c0.3-0.1,0.6-0.3,0.9-0.5s0.5-0.4,0.7-0.6c0.2-0.2,0.4-0.4,0.5-0.6c0.1-0.2,0.2-0.4,0.3-0.5h0.2c0.6,1.5,1.1,2.9,1.6,4.2
		c0.5,1.3,1,2.6,1.4,3.9c0.5,1.2,0.9,2.4,1.3,3.6c0.4,1.2,0.9,2.3,1.3,3.4c0.2,0.6,0.4,1,0.6,1.4c0.2,0.4,0.4,0.8,0.6,1.2
		c0,0.1,0.1,0.2,0.2,0.4c0.1,0.2,0.3,0.4,0.5,0.6c0.2,0.2,0.5,0.4,0.8,0.5c0.3,0.1,0.7,0.2,1.1,0.2v0.3H175.8z M172.3,11.8
		c-0.1,0.2-0.3,0.6-0.5,1.1s-0.5,1.1-0.8,1.8s-0.6,1.5-1,2.4s-0.8,1.9-1.2,2.9h6.7c-0.3-0.8-0.6-1.6-0.9-2.4s-0.6-1.6-0.9-2.3
		c-0.3-0.7-0.6-1.4-0.8-2S172.5,12.2,172.3,11.8z"/>
	<path class="st2" d="M191.1,28.1v-0.3c0.5,0,0.9-0.1,1.2-0.2c0.3-0.1,0.4-0.3,0.4-0.6v-6.8c0-1-0.2-1.9-0.6-2.5c-0.4-0.6-1.1-1-2-1
		c-0.6,0-1.1,0.1-1.5,0.4c-0.4,0.3-0.8,0.6-1.3,1.1v8.8c0,0.2,0.1,0.3,0.2,0.4c0.1,0.1,0.2,0.1,0.3,0.2c0.1,0,0.3,0.1,0.4,0.1
		s0.3,0,0.5,0.1v0.3h-5.2v-0.3c0.4,0,0.8-0.1,1.1-0.2c0.3-0.1,0.4-0.3,0.4-0.6v-9.2c0-0.1,0-0.2,0-0.3c0-0.1-0.1-0.2-0.2-0.2
		c-0.2-0.1-0.3-0.2-0.6-0.3s-0.4-0.2-0.6-0.3v-0.2l3.5-1.3h0.2V18l0.1,0c0.2-0.3,0.4-0.6,0.7-1s0.6-0.7,1-1c0.4-0.3,0.8-0.5,1.2-0.7
		s0.9-0.3,1.4-0.3c1,0,1.8,0.4,2.4,1.2s0.8,1.8,0.8,3v7.9c0,0.1,0.1,0.2,0.2,0.3s0.3,0.2,0.4,0.2c0.2,0,0.3,0.1,0.5,0.1
		c0.2,0,0.4,0,0.5,0.1v0.2H191.1z"/>
	<path class="st2" d="M207.2,28.2H207v-2.7h0c-0.5,0.9-1.1,1.6-1.8,2c-0.7,0.4-1.6,0.6-2.6,0.6c-0.7,0-1.3-0.1-1.9-0.4
		c-0.6-0.3-1.2-0.7-1.7-1.2c-0.5-0.5-0.9-1.2-1.2-2c-0.3-0.8-0.4-1.7-0.4-2.8c0-0.9,0.2-1.8,0.5-2.6c0.3-0.8,0.8-1.5,1.4-2.1
		c0.6-0.6,1.3-1.1,2.2-1.4c0.8-0.3,1.8-0.5,2.8-0.5c0.5,0,1,0,1.5,0.1c0.5,0.1,0.9,0.2,1.3,0.3c0-0.3,0-0.6,0-1.1c0-0.5,0-0.9,0-1.4
		c0-0.5,0-0.9,0-1.3c0-0.4,0-0.7,0-0.9l-2.2-0.8V9.8l4.3-1.2h0.2V26c0.1,0.1,0.4,0.2,0.8,0.4c0.4,0.2,0.8,0.3,1.1,0.5v0.2
		L207.2,28.2z M207,18.1c-0.4-0.7-0.9-1.3-1.5-1.8c-0.6-0.4-1.2-0.7-1.7-0.7c-0.7,0-1.3,0.2-1.8,0.5c-0.5,0.3-0.9,0.8-1.2,1.3
		c-0.3,0.5-0.6,1.2-0.7,1.9c-0.2,0.7-0.2,1.4-0.2,2.2c0,0.7,0.1,1.4,0.3,2.1c0.2,0.7,0.4,1.3,0.8,1.8s0.8,1,1.3,1.3
		c0.5,0.3,1.1,0.5,1.8,0.5c0.7,0,1.4-0.3,1.9-0.8c0.5-0.5,0.9-1.1,1-1.9V18.1z"/>
	<path class="st2" d="M222.7,25.4c-0.3,0.5-0.6,0.9-1,1.4c-0.4,0.4-0.9,0.8-1.5,1c-0.6,0.3-1.3,0.4-2,0.4c-0.9,0-1.7-0.2-2.5-0.5
		c-0.8-0.3-1.4-0.8-1.9-1.4c-0.5-0.6-0.9-1.3-1.2-2.2c-0.3-0.8-0.4-1.7-0.4-2.6c0-0.8,0.1-1.5,0.4-2.2c0.3-0.7,0.6-1.4,1.1-2
		c0.5-0.6,1.1-1.1,1.8-1.4c0.7-0.4,1.5-0.6,2.4-0.6c0.7,0,1.4,0.1,2,0.3c0.6,0.2,1.2,0.5,1.6,0.8s0.8,0.8,1.1,1.4
		c0.3,0.6,0.5,1.2,0.5,2h-8.6c0,0.1,0,0.3,0,0.5c0,0.2,0,0.4,0,0.6c0,0.8,0.1,1.5,0.3,2.2c0.2,0.7,0.5,1.3,0.9,1.8
		c0.4,0.5,0.9,0.9,1.6,1.2c0.6,0.3,1.4,0.5,2.2,0.5c0.9,0,1.7-0.2,2.4-0.7c0.7-0.5,1.1-1,1.3-1.7l0.2,0.1
		C223.1,24.4,222.9,24.9,222.7,25.4z M219.6,16.3c-0.5-0.5-1.1-0.7-1.8-0.7c-0.5,0-1,0.1-1.4,0.4c-0.4,0.3-0.8,0.6-1,1
		c-0.3,0.4-0.5,0.8-0.7,1.2s-0.3,0.7-0.3,0.9c0.4,0,0.8,0,1.1,0c0.3,0,0.6,0,1,0c0.3,0,0.6,0,1,0c0.3,0,0.7,0,1.1,0
		c0.3,0,0.5,0,0.8,0c0.2,0,0.4-0.1,0.6-0.1c0.1-0.1,0.2-0.3,0.3-0.4s0.1-0.3,0.1-0.6C220.3,17.3,220.1,16.8,219.6,16.3z"/>
	<path class="st2" d="M232.7,17.5c-0.2,0.3-0.5,0.4-0.8,0.4c-0.3,0-0.5,0-0.7-0.1c-0.2-0.1-0.3-0.2-0.4-0.3
		c-0.1-0.1-0.3-0.2-0.4-0.3c-0.1-0.1-0.3-0.1-0.6-0.1c-0.2,0-0.4,0.1-0.6,0.2s-0.4,0.3-0.6,0.6c-0.2,0.2-0.3,0.5-0.5,0.8
		c-0.1,0.3-0.3,0.6-0.4,0.8v7.7c0.1,0.2,0.2,0.3,0.3,0.4c0.2,0.1,0.4,0.2,0.6,0.2c0.2,0,0.5,0.1,0.7,0.1c0.2,0,0.5,0,0.6,0.1v0.3h-6
		v-0.3c0.4,0,0.8-0.1,1.1-0.2c0.3-0.1,0.4-0.3,0.4-0.6v-9.1c0-0.1,0-0.3,0-0.3c0-0.1-0.1-0.2-0.2-0.2c-0.2-0.1-0.3-0.2-0.6-0.3
		c-0.2-0.1-0.4-0.2-0.6-0.3v-0.2l3.5-1.4h0.2l-0.1,3.7h0.1c0.1-0.2,0.2-0.5,0.4-0.9c0.2-0.4,0.4-0.8,0.8-1.2s0.7-0.8,1.1-1.1
		c0.4-0.3,0.9-0.5,1.5-0.5c0.4,0,0.8,0.1,1.1,0.4s0.5,0.6,0.5,1C233.1,17,233,17.3,232.7,17.5z"/>
	<path class="st2" d="M242.3,26c-0.3,0.5-0.6,0.9-1.1,1.2c-0.5,0.3-1,0.6-1.6,0.7c-0.6,0.1-1.2,0.2-1.9,0.2c-0.8,0-1.5-0.1-2.2-0.2
		s-1.3-0.3-1.9-0.6v-3.5h0.2c0.1,0.4,0.3,0.9,0.5,1.4c0.2,0.5,0.5,0.9,0.8,1.3c0.3,0.4,0.7,0.7,1.1,1c0.4,0.3,0.9,0.4,1.5,0.4
		c0.9,0,1.5-0.2,2-0.7s0.8-1.3,0.8-2.3c0-0.6-0.2-1-0.5-1.4s-0.8-0.6-1.4-0.7c-0.5-0.1-0.9-0.2-1.4-0.3s-0.8-0.2-1.2-0.3
		c-0.7-0.2-1.2-0.6-1.6-1.2c-0.4-0.6-0.6-1.3-0.6-2.1c0-0.6,0.1-1.1,0.3-1.5c0.2-0.4,0.5-0.8,0.9-1.2c0.4-0.3,0.9-0.6,1.4-0.7
		c0.5-0.2,1.1-0.3,1.7-0.3c0.8,0,1.4,0.1,2,0.2c0.6,0.1,1.1,0.3,1.6,0.5l0.3,3.3l-0.2,0.1c-0.3-0.5-0.5-1-0.8-1.5s-0.5-0.9-0.8-1.2
		c-0.3-0.3-0.7-0.6-1-0.8c-0.4-0.2-0.8-0.3-1.3-0.3c-0.3,0-0.6,0.1-0.9,0.2c-0.3,0.1-0.6,0.3-0.8,0.5c-0.2,0.2-0.4,0.5-0.6,0.8
		s-0.2,0.7-0.2,1.1c0,0.7,0.2,1.1,0.6,1.4c0.4,0.3,0.9,0.5,1.4,0.6c0.4,0.1,0.8,0.2,1.3,0.3c0.5,0.1,0.9,0.2,1.2,0.3
		c0.8,0.2,1.5,0.6,2.1,1.2c0.6,0.6,0.8,1.4,0.8,2.3C242.7,24.9,242.6,25.5,242.3,26z"/>
	<path class="st2" d="M255.8,24.1c-0.3,0.8-0.8,1.5-1.4,2.1c-0.6,0.6-1.2,1.1-2,1.4c-0.8,0.3-1.6,0.5-2.4,0.5
		c-0.7,0-1.4-0.1-2.2-0.4c-0.8-0.3-1.4-0.6-2.1-1.2c-0.6-0.5-1.2-1.2-1.6-2.1s-0.6-1.9-0.6-3c0-0.8,0.2-1.6,0.5-2.4
		c0.3-0.8,0.8-1.5,1.3-2c0.6-0.6,1.2-1.1,2-1.4c0.8-0.4,1.7-0.5,2.6-0.5c0.7,0,1.4,0.1,2.2,0.4c0.7,0.3,1.4,0.7,2,1.2
		c0.6,0.5,1.1,1.2,1.5,2c0.4,0.8,0.6,1.7,0.6,2.8C256.3,22.4,256.1,23.3,255.8,24.1z M253.6,19.5c-0.1-0.7-0.4-1.3-0.7-1.9
		c-0.3-0.6-0.7-1.1-1.2-1.5c-0.5-0.4-1.1-0.6-1.9-0.6c-0.6,0-1.1,0.2-1.6,0.5c-0.5,0.4-0.9,0.8-1.2,1.4c-0.3,0.6-0.6,1.2-0.8,2
		c-0.2,0.7-0.3,1.5-0.3,2.2c0,0.8,0.1,1.6,0.2,2.3c0.1,0.7,0.4,1.4,0.7,1.9s0.7,1,1.2,1.3c0.5,0.3,1.1,0.5,1.8,0.5s1.3-0.2,1.8-0.6
		c0.5-0.4,0.9-0.9,1.2-1.6c0.3-0.6,0.5-1.3,0.6-2.1c0.1-0.7,0.2-1.4,0.2-2C253.8,20.9,253.7,20.2,253.6,19.5z"/>
	<path class="st2" d="M265.1,28.1v-0.3c0.5,0,0.9-0.1,1.2-0.2c0.3-0.1,0.4-0.3,0.4-0.6v-6.8c0-1-0.2-1.9-0.6-2.5c-0.4-0.6-1.1-1-2-1
		c-0.6,0-1.1,0.1-1.5,0.4c-0.4,0.3-0.8,0.6-1.3,1.1v8.8c0,0.2,0.1,0.3,0.2,0.4c0.1,0.1,0.2,0.1,0.3,0.2c0.1,0,0.3,0.1,0.4,0.1
		s0.3,0,0.5,0.1v0.3h-5.2v-0.3c0.4,0,0.8-0.1,1.1-0.2c0.3-0.1,0.4-0.3,0.4-0.6v-9.2c0-0.1,0-0.2,0-0.3c0-0.1-0.1-0.2-0.2-0.2
		c-0.2-0.1-0.3-0.2-0.6-0.3c-0.2-0.1-0.4-0.2-0.6-0.3v-0.2l3.5-1.3h0.2V18l0.1,0c0.2-0.3,0.4-0.6,0.7-1c0.3-0.3,0.6-0.7,1-1
		c0.4-0.3,0.8-0.5,1.2-0.7s0.9-0.3,1.4-0.3c1,0,1.8,0.4,2.4,1.2s0.8,1.8,0.8,3v7.9c0,0.1,0.1,0.2,0.2,0.3c0.1,0.1,0.3,0.2,0.4,0.2
		c0.2,0,0.3,0.1,0.5,0.1c0.2,0,0.4,0,0.5,0.1v0.2H265.1z"/>
</g>
</svg>
