<?xml version="1.0" encoding="utf-8"?>
<!-- Generator: Adobe Illustrator 25.4.1, SVG Export Plug-In . SVG Version: 6.00 Build 0)  -->
<svg version="1.1" id="Layer_1" xmlns="http://www.w3.org/2000/svg" xmlns:xlink="http://www.w3.org/1999/xlink" x="0px" y="0px"
	 viewBox="0 0 277.9 38" style="enable-background:new 0 0 277.9 38;" xml:space="preserve">
<style type="text/css">
	.st0{fill:#E3008C;}
	.st1{fill:#FFFFFF;}
	.st2{font-family:'AbrilFatface-Regular';}
	.st3{font-size:26.8848px;}
	.st4{font-family:'BigCaslon-Medium';}
</style>
<path class="st0" d="M46.4,12.7c-0.4-0.7-1-1.3-1.7-1.7c-0.5-0.2-0.9-0.5-1.3-0.8C43.2,10.1,43,9.9,43,9.7c-0.3-1.3-0.8-2.4-1.5-3.5
	c-0.5-0.7-1.2-1.4-2.2-1.5c-0.7,0-1.2-0.3-1.8-0.6c-0.8-0.5-1.7-0.5-2.6-0.2c-0.5,0.2-0.6,0.2-0.7-0.4c-0.2-0.9-0.8-1.4-1.4-2
	c-0.4-0.4-0.7-0.7-1.1-1.1c-0.1-0.1-0.2-0.2-0.4-0.3c-0.4-0.2-0.8-0.2-1.2,0c-0.8,0.3-1.6,0.4-2.5,0.2c-0.3-0.1-0.6-0.1-0.8-0.1
	c-1.8,0-3.6,0-5.4,0.1c-0.5,0-1.1,0.2-1.6,0.3c-0.3,0.1-0.7,0.2-1,0.2c-0.9,0-1.7,0.1-2.5,0.3c-1,0.3-2,0.6-2.8,1.2
	c-0.3,0.2-0.6,0.4-0.9,0.5c-0.8,0.3-1.5,0.6-2.1,1.3C10,4.6,9.6,4.7,9.1,4.5C8.6,4.4,8.2,4.4,7.7,4.6C7.3,4.8,7,5.1,6.6,5.3
	C6.4,5.5,6.2,5.7,6,5.7C5.3,5.6,4.7,5.8,4,6c-0.8,0.2-1.6,1.1-1.7,2c-0.1,1-0.1,1.9,0.3,2.8c0.2,0.3,0.1,0.7,0,1
	c-0.3,0.9-0.3,1.9,0,2.9c0.1,0.4,0.2,0.8,0.2,1.2c0,0.2,0,0.4,0,0.6c0,0.9,0.3,1.7,0.4,2.5c0.3,1.2,0.5,2.5,1.1,3.6
	c0.1,0.2,0.2,0.4,0.2,0.6c0.3,0.9,0.5,1.7,0.9,2.6c0.3,0.8,0.9,1.5,1.6,2.1c0.2,0.2,0.4,0.3,0.7,0.5c0.3,0.2,0.3,0.4,0.2,0.7
	c-0.4,1.3-0.4,2.6,0,3.9c0.2,0.5,0.5,0.9,0.7,1.3c0.2,0.3,0.4,0.6,0.5,1c0.3,1.3,1.2,2,2.3,2.4c1.4,0.5,2.9,0.4,4.4,0
	c0.5-0.2,1-0.3,1.6-0.5c0.3-0.1,0.6-0.2,0.9-0.3c0.1,0,0.2-0.1,0.3-0.1c0.9-0.2,1.6-0.2,3.1,0.2c0.7,0.1,1.4,0.1,2.1,0.2
	c0.5,0,1,0.1,1.4-0.2c0.4-0.3,0.8-0.3,1.2-0.3c0.6,0,1.2-0.1,1.7-0.3c0.5-0.3,0.8-0.8,0.7-1.3c0-0.2,0-0.5,0-0.7
	c0-0.3-0.1-0.6-0.1-0.9c-0.1-0.4-0.3-0.8-0.3-1.3c-0.1-0.6,0-1.3-0.3-1.9c0,0,0,0,0-0.1c0.1,0,0.1,0.1,0.2,0.1
	c0.6,0.7,1.5,1,2.3,1.2c0.4,0.1,0.8,0.2,1.2,0.3c1.4,0.6,2.8,0.8,4.3,0.7c1.1,0,2.2-0.1,3.2-0.8c0.6-0.4,1.1-0.9,1.6-1.4
	c0.4-0.4,0.8-0.8,1.1-1.3c0.4-0.6,0.7-1.2,0.8-1.9c0.3-1.3,0.7-2.5,1.3-3.7c0.4-0.7,0.7-1.4,1.1-2c0.6-0.8,1.3-1.6,1.7-2.6
	c0.2-0.6,0.6-1.2,0.6-1.9C47.6,15.4,47.2,14,46.4,12.7z M36,9.7c-0.2-0.9-0.4-1.7-0.6-2.5C36,7.6,36.3,9.1,36,9.7z M34.6,6.7
	c0,0,0.1,0,0.1,0c0.1,0.4,0.2,0.7,0.2,1.1c0.1,0.9,0.1,1.8,0.2,2.7c0.1,0.6-0.2,1-0.7,1.5c-1.2,1.1-2.3,2.3-3.5,3.4
	c-0.7,0.7-1.5,1.3-2.3,2c-0.6,0.5-1.1,1.1-1.7,1.6c-0.1,0.1-0.2,0.1-0.2,0.2c-0.1,0-0.1-0.1-0.1-0.1c0.1-0.1,0.2-0.2,0.3-0.3
	c0.1-0.1,0.3-0.2,0.3-0.3c0-0.4-0.1-0.9-0.2-1.3c-0.1-0.3-0.4-0.5-0.7-0.5c-0.4,0-0.9,0-1.3,0.1c-0.3,0.2-0.6,0.5-0.8,0.8
	c-0.1,0.1-0.2,0.3-0.3,0.4c0.1-0.5,0.3-0.9,0.6-1.3c0.8-0.8,1.6-1.4,2.6-2c1.3-0.7,2.4-1.7,3.3-2.7c1.2-1.3,2.2-2.6,3.1-4.1
	C33.8,7.5,34.2,7.1,34.6,6.7z M29.6,18.2c-0.2,0.1-0.4,0.2-0.7,0.3c1.6-1.6,3.6-2.7,5.1-4.5c-0.4,0.9-0.8,1.7-1.7,2.1
	c-0.2,0.1-0.3,0.2-0.4,0.3C31.2,17.1,30.4,17.7,29.6,18.2z M30.4,19.6c0.3-0.1,0.6-0.2,0.9-0.2c1.7-0.3,3.4-0.3,4.9,0.6
	c0.3,0.2,0.6,0.5,0.9,0.8c-2.2-0.9-4.4-1.2-6.7-1V19.6z M12.9,27.5c0.9-0.1,1.8-0.3,2.7-0.4c0.1,0,0.2,0,0.3,0c0,0,0,0.1,0.1,0.1
	c-1.3,0.7-2.6,1.2-4.1,1.2C12,28,12.4,27.6,12.9,27.5z M11.4,27c0,0,0-0.1-0.1-0.1c0.3-0.2,0.6-0.3,0.9-0.5c0,0,0,0,0.1,0.1
	C12,26.7,11.9,27.1,11.4,27z M13,26.9c0.1-0.1,0.2-0.2,0.4-0.3c0.4-0.3,0.7-0.6,1.1-0.9c0.4-0.2,0.9-0.4,1.3-0.5
	c0.9-0.2,1.9-0.2,2.8-0.4c0,0,0,0.1,0,0.1C16.9,26.1,15.1,26.8,13,26.9z M16.5,28.8c0.3-0.9,0.7-1.7,1.5-2.3
	c0.3-0.2,0.5-0.5,0.7-0.7c0.2-0.1,0.4-0.2,0.6-0.4c0,0,0,0.1,0.1,0.1c-0.1,0.1-0.1,0.2-0.2,0.2c-0.8,0.7-1.4,1.6-1.8,2.6
	c-0.3,0.9-0.1,1.7,0.4,2.4c0.3,0.4,0.7,0.6,1,0.9c0.1,0.1,0.2,0.1,0.3,0.2c-0.5,0.3-1.6,0.1-2.1-0.4C16.3,30.7,16.1,29.8,16.5,28.8z
	 M18.8,29.9c-0.4-1.1-0.1-2.6,0.8-3.4c0.4-0.4,0.8-0.8,1.1-1.2l0,0c0-0.1,0.1-0.1,0.2-0.2c0,0,0.1,0,0.1,0v0c0,1.3,0.8,1.4,1.3,1.2
	c0,0,0,0,0,0c0.1-0.1,0.3-0.1,0.4-0.2c0,0,0,0,0.1,0c0.7-0.3,1-0.9,1.2-1.5c0-0.1,0.1-0.2,0.2-0.3c0.1,0.2,0.1,0.4,0.2,0.5
	c0.3,0.7,0.6,1.4,0.9,2.1c0.1,0.2,0,0.3-0.1,0.5c-0.6,0.5-1.2,1.1-1.8,1.5c-0.3,0.2-0.6,0.3-0.9,0.5c0,0,0,0,0,0
	c-1.4,0.9-1.2,0.8-2.1,1c0,0-0.1,0.1-0.1,0.1c0,0-0.1,0-0.2,0C19.5,30.7,19,30.4,18.8,29.9z M23.1,17.3c0,0.1-0.1,0.1-0.1,0.2
	c-0.3-0.4-0.3-1.1,0-1.4c0.6-0.5,0.9-1.2,1.6-1.6c0.6-0.3,1.1-0.6,1.7-0.9c0.7-0.4,1.5-0.7,2.3-1c-0.2,0.2-0.5,0.5-0.8,0.7
	c-0.8,0.5-1.6,1-2.4,1.5C24.4,15.4,23.6,16.1,23.1,17.3z M22.2,25.6c0.1-1.1,0.8-1.9,1.2-2.8C23.6,24.5,23.3,25.2,22.2,25.6z
	 M22.8,21c-1-0.2-1.7-0.6-2.3-1.2c-0.2-0.2-0.1-0.7,0.1-0.9c0.2-0.2,0.5-0.1,0.7,0c0.6,0.4,1.1,0.9,1.4,1.5
	C22.7,20.6,22.8,20.8,22.8,21z M21.8,22c0.2,0,0.3,0,0.5,0c0,0.1,0,0.1,0.1,0.2c-0.5,0.3-0.9,0.6-1.4,0.9c-0.3,0.1-0.6,0.2-0.9,0.2
	c-0.3,0.1-0.5-0.1-0.7-0.4c0-0.1-0.1-0.2,0-0.2c0-0.3,0.7-0.8,1-0.6C20.9,22.2,21.4,22.1,21.8,22z M24.2,20.7
	c0.1-0.4,0.1-0.8,0.2-1.2c0.2-0.7,0.6-1.3,1.1-1.8c0.1-0.1,0.3-0.1,0.5-0.1c0,0.2,0.1,0.3,0.1,0.5c-0.2,1-0.8,1.8-1.4,2.5
	c-0.1,0.1-0.3,0.2-0.4,0.2C24.3,20.7,24.3,20.7,24.2,20.7z M24.9,22.4c-0.1-0.2,0-0.4,0.2-0.4c0.2,0,0.3,0,0.5,0
	c0.7-0.1,1.3,0.3,1.9,0.8c0.1,0.1,0.2,0.3,0.1,0.4c-0.1,0.2-0.2,0.4-0.4,0.4C26.5,23.8,25.3,23.2,24.9,22.4z M34.1,5.4
	c0,0,0,0.3-0.1,0.4c-1,0.9-1.7,2.1-2.4,3.3c-0.4,0.6-0.9,1.2-1.3,1.8c0,0.1-0.1,0.1-0.2,0.1c0.6-0.8,1-1.7,1.5-2.6
	c0.3-0.6,0.4-1.2,0.8-1.8c0.3-0.5,0.8-0.9,1.2-1.3C33.6,5.2,33.9,5.3,34.1,5.4z M33.4,3c-1-0.7-2.1-1.3-3.1-2C31,0.8,33,2,33.4,3z
	 M16,2.6c1.2-0.3,2.3-0.6,3.5-0.9c0.4-0.1,0.7,0,1.1,0c0.8,0,1.7,0,2.5,0.1c0.1,0,0.2,0,0.3,0c-1.6,0.8-3.3,1.5-5.2,1.4
	c-1,0-2-0.1-3-0.1c0,0,0-0.1,0-0.1C15.5,2.8,15.7,2.7,16,2.6z M15.2,4.2c1,0,2,0,3,0c0.3,0,0.6-0.1,1-0.2c1.9-0.3,3.7-0.8,5.5-1.4
	c0.3-0.1,0.5-0.2,0.8-0.3c0.4-0.1,0.8-0.1,1.1,0c1,0.2,2,0.4,3,0.6c1.3,0.2,2.5,0.9,3.5,1.8c-0.4,0.4-0.7,0.7-1,1
	c-0.5,0.5-0.8,1.1-1.1,1.7c-0.2,0.5-0.4,0.9-0.7,1.3c-0.3,0.5-0.6,1-0.9,1.5c-0.3,0.5-0.8,0.9-1.4,1.2c-1,0.6-2,1.1-3,1.7
	c-1,0.7-2.1,1.4-2.7,2.7c-0.2-0.3-0.3-0.5-0.4-0.8c-0.6-1.2-1.1-2.4-1.7-3.5c-0.3-0.5-0.6-1-1-1.4c-0.8-0.9-1.4-1.8-1.9-2.9
	c-0.6-1.1-1.2-2.3-2.5-3c0,0,0,0-0.1-0.1C15,4.2,15.1,4.2,15.2,4.2z M20.8,14.5c-1.2-1.2-2.3-2.6-3.2-4.1
	C19,11.6,20.2,12.8,20.8,14.5z M14.8,5.9c0.7,0.6,1.3,1.4,1.7,2.3c0.3,0.6,0.6,1.1,0.9,1.7c0,0.1,0.1,0.1,0.1,0.2c0,0-0.1,0-0.1,0.1
	c-0.5-0.6-0.9-1.1-1.4-1.6c-0.3-0.3-0.6-0.6-0.9-0.9c-0.7-0.7-1.3-1.3-2-2c0,0,0,0,0-0.1C13.5,5.3,14.3,5.4,14.8,5.9z M11.6,6.6
	c0-0.1,0.1-0.1,0.1-0.2C11.9,6,11.9,6,12.3,6.2c1,0.7,2,1.5,2.6,2.6c0.6,1,1.4,1.9,2.2,2.8c1,1.1,1.9,2.2,2.8,3.4
	c0.4,0.5,0.8,0.9,1.2,1.4c0.3,0.5,0.6,1,0.8,1.5c0,0-0.1,0-0.1,0c-0.3-0.1-0.5-0.3-0.8-0.4c-0.6-0.3-1-0.1-1.2,0.5
	c-0.1,0.2-0.1,0.4-0.2,0.5c-0.4,0.5-0.2,1,0.2,1.5c0.1,0.1,0.1,0.2,0.1,0.3c-0.1-0.1-0.2-0.1-0.3-0.2c-0.4-0.5-0.8-1.1-1.2-1.7
	c-0.4-0.6-0.9-1.3-1.3-1.9c-0.6-0.8-1.1-1.6-2-2.2c-0.9-0.6-1.7-1.3-2.8-1.5c0,0,0,0-0.1,0c-0.9-0.3-1-0.4-1.1-1.3
	c-0.1-0.5-0.2-0.9-0.2-1.4C10.6,8.8,10.9,7.6,11.6,6.6z M17.2,18.9c0,0-0.1,0.1-0.1,0.1c-1.8-1.3-3.2-3-4.7-4.6c0,0,0.1-0.1,0.1-0.1
	c0.1,0,0.2,0.1,0.3,0.1c0.9,0.6,1.8,1.3,2.3,2.2c0.3,0.5,0.9,0.8,1.3,1.2C16.7,18.2,17,18.6,17.2,18.9z M8.4,7.6
	C8.4,7.2,8.6,7,9,6.9c0.2,0,0.5-0.1,0.7-0.2c0,0,0,0.1,0,0.1C9.4,7.4,9.5,8,9.6,8.6c0.1,0.8,0.2,1.5,0.3,2.3c0,0.2,0.1,0.4,0.1,0.7
	c-0.4-0.2-0.7-0.6-1-0.9C8.3,9.8,8.3,8.7,8.4,7.6z M4.6,7.3C4.2,7.9,3.8,8.5,3.4,9C3.3,8.3,3.8,7.6,4.6,7.3z M4.7,20.7
	c-0.1-0.4-0.3-0.7-0.3-1.1c-0.2-1.7-0.4-3.4-0.6-5.1c0,0,0-0.1,0-0.2C4.2,15,5,19.8,4.7,20.7z M8.9,26.7C8,26.3,7.1,25.8,6.6,25
	c-0.5-0.7-0.9-1.4-1.1-2.3c-0.1-0.4-0.1-0.8,0-1.2c0.1-1.2-0.1-2.5-0.2-3.7c0-0.3-0.1-0.7-0.2-1c-0.3-1.2-0.6-2.4-1.1-3.5
	c-0.3-0.7-0.2-1.4,0-2.1C4,11,4.1,10.7,4.1,10.5c0.2-1.1,1-2,1.7-2.9C6.1,7.1,6.5,7,7.1,7.1c0.2,0.1,0.5,0,0.8,0
	C7.8,7.6,7.7,8,7.7,8.4c-0.1,0.8-0.2,1.5-0.2,2.2c0,0.9,0.3,1.6,1.1,2.1c0.7,0.4,1.3,0.8,2,1.2c0.4,0.2,0.6,0.5,0.8,0.8
	c0.2,0.3,0.5,0.7,0.8,1c0.4,0.4,0.8,0.7,1.2,1c0.7,0.6,1.4,1.2,2,1.8c0.3,0.2,0.5,0.5,0.8,0.7c0.2,0.2,0.4,0.4,0.6,0.5
	c0.5,0.3,0.8,0.6,1.2,1.1c0.2,0.3,0.6,0.5,0.9,0.7c-0.1,0.1-0.1,0.1-0.2,0.2c-0.4,0.4-0.5,0.8-0.4,1.3c0,0.1,0,0.1,0,0.2
	c0.1,0.4,0,0.4-0.4,0.5c-0.9,0.2-1.8,0.3-2.7,0.6c-1,0.2-2,0.4-3,0.7c-1,0.3-1.8,0.8-2.5,1.5C9.5,26.8,9.2,26.8,8.9,26.7z M9.4,30.8
	c0,0-0.1,0-0.1,0c0-0.4,0.1-0.9,0.1-1.3c0-0.1,0.2-0.1,0.2-0.2c0,0.1,0.1,0.2,0.1,0.3C9.7,30,9.5,30.4,9.4,30.8z M10.5,28.3
	c-0.2,0-0.4-0.1-0.6-0.1c0,0,0-0.1,0-0.2c0.2,0,0.4,0.1,0.6,0.1C10.5,28.2,10.5,28.2,10.5,28.3z M11.1,35.6c0.6,0.3,1.3,0.7,2,0.9
	c0.7,0.2,1.5,0.2,2.3,0.3C14,37.4,11.4,36.6,11.1,35.6z M25.4,35.3c-0.5,0.3-0.9,0.3-1.4,0.1c-0.9-0.3-1.9-0.4-2.9-0.3
	c0,0,0,0-0.1,0c-0.2,0-0.8,0.1-2.3,0.5c0,0-0.1,0-0.1,0c-0.4,0.1-0.8,0.2-1.2,0.3c-0.4,0.1-0.7,0-1.1,0c-1.3-0.1-2.6-0.2-3.8-0.6
	c-0.7-0.2-1.3-0.6-1.8-1.1c-0.1-0.1-0.1-0.3-0.1-0.4c0.1-1.3,0.1-2.6,0.5-3.9c0.1-0.2,0.2-0.3,0.4-0.3c0.9-0.1,1.9-0.3,2.8-0.5
	c0.4-0.1,0.7-0.3,1.2-0.5c-0.5,1.4-0.4,2.6,0.7,3.6c1.1,0.9,2.2,0.7,3.4,0.3c0.1,0,0.2-0.1,0.3-0.1c0.9-0.4,1.4-0.6,1.9-0.8
	c0,0,0,0,0,0c0.7-0.3,1.3-0.7,1.8-1.2c0.5-0.6,1.1-0.9,1.9-1c0.3,0,0.4,0,0.5,0.3c0.3,0.8,0.2,1.6,0.3,2.4c0,0.5,0.1,1.1,0.1,1.6
	C26.5,34.4,26.1,34.9,25.4,35.3z M25.7,24.7c0-0.1-0.1-0.1-0.1-0.2c0.1,0,0.2,0,0.3,0c0.6,0,1.1,0,1.7-0.1c0.7-0.1,1.1-0.8,1.2-1.5
	c0.1-0.7-0.3-1-0.8-1.2c-0.3-0.1-0.6-0.2-0.9-0.3c0,0,0-0.1,0-0.1c0.6-0.1,1.2-0.2,1.9-0.2c1.2-0.1,2.4-0.1,3.7-0.1
	c1.1,0,2.2,0.4,3.2,1c0.5,0.3,0.9,0.8,1,1.4c0,0.2,0,0.4-0.2,0.5c-0.4,0.1-0.8,0.2-1.2,0.4c-0.6,0.2-1.1,0.4-1.7,0.6
	c-0.2,0.1-0.5,0.2-0.8,0.2c-2,0.1-3.9,0.5-5.7,1.4c-0.1,0.1-0.3,0.2-0.4,0C26.4,25.7,26,25.2,25.7,24.7z M36.2,24.3
	c-0.3,0.3-0.8,0.2-1.2,0.3c0,0,0-0.1,0-0.1c0.4-0.1,0.8-0.2,1.2-0.3C36.2,24.2,36.2,24.3,36.2,24.3z M27.8,35c0,0.6-0.3,0.8-1.1,0.8
	c0.1-0.1,0.1-0.2,0.2-0.3c0.3-0.3,0.4-0.6,0.4-1.1c0-0.6,0-1.3,0-1.9c0,0,0.1,0,0.1,0c0.1,0.4,0.3,0.7,0.4,1.1
	C27.8,34,27.8,34.5,27.8,35z M28.3,27.9c-0.3-0.2-0.5-0.4-0.7-0.6c0.5-0.8,3-1.6,3.8-1.3c-0.8,0.5-1.5,1.1-2.2,1.6
	c-0.2,0.1-0.4,0.3-0.6,0.4C28.5,28,28.4,28,28.3,27.9z M42.6,24.2c-0.4,0.9-0.5,1.8-0.7,2.7c-0.2,0.9-0.6,1.8-1,2.6
	c-0.1,0.2-0.4,0.4-0.7,0.6c-0.4,0.3-0.7,0.5-1.1,0.8c0-0.1,0-0.1,0-0.1c1-1.2,1.5-2.5,1.9-4c0.2-0.7,0.3-1.5,0.6-2.2
	c0.1-0.4,0.4-0.7,0.7-1.1c0.4-0.5,0.8-1.1,1.2-1.6c0.1-0.1,0.1-0.2,0.2-0.3c0,0,0,0,0,0C43.4,22.5,43,23.3,42.6,24.2z M42.3,22
	c-0.6,0.8-1.2,1.6-1.6,2.6c-0.5,1.3-0.9,2.5-1.4,3.8c-0.3,0.8-0.7,1.5-1.2,2.1c-0.1,0.2-0.3,0.3-0.5,0.4c-0.5,0.2-1,0.5-1.5,0.7
	c-0.4,0.1-0.9,0.1-1.4,0.1c-1.5-0.2-2.7-0.9-4-1.6c-0.6-0.4-1.1-0.8-1.7-1.2c0,0,0-0.1,0-0.1c0.1,0,0.2-0.1,0.3-0.1
	c1.2-0.1,2-0.8,2.6-1.8c0.1-0.1,0.1-0.2,0.2-0.3c0.2-0.5,0.6-0.6,1.1-0.6c0.6,0.1,1.1,0.1,1.6-0.2c0.1,0,0.2,0,0.2,0
	c0.9,0,1.6-0.4,2.2-1.1c0.3-0.3,0.6-0.5,0.9-0.8c0.7-0.6,0.9-1.6,0.6-2.5c-0.5-1.3-1.4-2-2.7-2.5c-0.9-0.3-1.8-0.4-2.7-0.4
	c-0.5,0-1,0.2-1.4,0.3c-0.4,0.1-0.9,0.2-1.3,0.3c0,0,0-0.1,0-0.1c0.4-0.4,0.9-0.7,1.3-1.1c0.6-0.5,1.2-1,1.8-1.5s0.8-1.3,1.1-2
	c0-0.1,0.1-0.1,0.1-0.2c0.1-1.2,1.1-1.9,1.8-2.7c0.3-0.3,0.4-0.6,0.4-1c0-0.8,0-1.6,0-2.4c0-0.1,0-0.3-0.1-0.4
	c-0.3-0.6-0.6-1.2-0.9-1.9c0.1,0,0.2-0.1,0.4-0.1c0.3,0,0.7,0,1.1,0c0.2,0,0.4,0.1,0.5,0.2c0.8,0.7,1.4,1.5,1.8,2.4
	c0.4,1,1.2,1.8,2,2.5c0.2,0.2,0.3,0.4,0.4,0.6c0.2,0.8,0.3,1.5,0.7,2.2c0.2,0.3,0.3,0.6,0.4,0.9c0.2,0.5,0.5,1.1,0.8,1.6
	c0.3,0.5,0.3,1.1,0.3,1.7C44.1,19.5,43.2,20.7,42.3,22z M44.5,20.6c0,0-0.1,0-0.1,0c0-0.1,0-0.2,0.1-0.3c0.2-0.6,0.5-1.3,0.7-1.9
	c0.3-0.8,0.3-1.6,0-2.3c-0.4-1.2-0.9-2.4-1.4-3.6c0-0.1-0.1-0.2-0.1-0.4c0.1,0,0.1,0,0.1-0.1c1.3,0.8,1.9,2.1,2.2,3.5
	C46.5,17.6,45.7,19.2,44.5,20.6z"/>
<text transform="matrix(1 0 0 1 52.1062 28.1171)"><tspan x="0" y="0" class="st1 st2 st3">Catalina </tspan><tspan x="111.8" y="0" class="st1 st4 st3">Anderson</tspan></text>
</svg>
